<?xml version="1.0" standalone="no"?>
<!DOCTYPE svg PUBLIC "-//W3C//DTD SVG 20010904//EN"
 "http://www.w3.org/TR/2001/REC-SVG-20010904/DTD/svg10.dtd">
<svg version="1.0" xmlns="http://www.w3.org/2000/svg"
 width="512.000000pt" height="512.000000pt" viewBox="0 0 512.000000 512.000000"
 preserveAspectRatio="xMidYMid meet">

<g transform="translate(0.000000,512.000000) scale(0.100000,-0.100000)"
fill="#000000" stroke="none">
<path d="M2480 4095 c-149 -41 -243 -163 -244 -315 -1 -66 4 -85 32 -142 37
-75 83 -120 158 -155 191 -87 411 26 455 235 47 228 -176 438 -401 377z"/>
<path d="M2507 2789 c-103 -16 -199 -90 -246 -189 -20 -44 -25 -71 -26 -130 0
-66 5 -85 33 -143 36 -72 86 -122 161 -158 71 -35 196 -33 273 4 131 64 208
219 178 361 -34 167 -202 282 -373 255z"/>
<path d="M2442 1463 c-60 -21 -146 -103 -179 -171 -74 -152 -2 -352 155 -429
49 -24 69 -28 142 -28 73 0 93 4 142 28 157 77 229 277 155 429 -35 71 -119
150 -183 172 -59 20 -174 20 -232 -1z"/>
</g>
</svg>
