<?xml version="1.0" standalone="no"?>
<!DOCTYPE svg PUBLIC "-//W3C//DTD SVG 20010904//EN"
 "http://www.w3.org/TR/2001/REC-SVG-20010904/DTD/svg10.dtd">
<svg version="1.0" xmlns="http://www.w3.org/2000/svg"
 width="512.000000pt" height="512.000000pt" viewBox="0 0 512.000000 512.000000"
 preserveAspectRatio="xMidYMid meet">

<g transform="translate(0.000000,512.000000) scale(0.100000,-0.100000)"
fill="#000000" stroke="none">
<path d="M3704 4941 c-27 -13 -60 -42 -96 -87 -30 -38 -656 -862 -1392 -1832
l-1338 -1763 -129 -576 c-72 -317 -128 -578 -125 -580 3 -3 239 120 526 273
l521 279 1383 1820 c760 1001 1388 1830 1394 1842 20 38 15 116 -11 154 -30
45 -581 466 -627 479 -48 13 -58 13 -106 -9z m334 -351 c138 -105 254 -195
257 -200 9 -15 -227 -321 -239 -311 -6 5 -126 95 -266 201 -140 105 -256 195
-258 199 -1 4 21 39 49 77 133 177 182 235 194 230 7 -2 125 -90 263 -196z
m-450 -358 c86 -66 207 -157 269 -204 l112 -86 -45 -58 c-25 -33 -48 -59 -51
-59 -16 0 -531 402 -528 412 4 13 77 113 82 113 2 0 74 -53 161 -118z m-251
-203 c51 -39 95 -75 98 -80 3 -4 -483 -652 -1081 -1439 -753 -993 -1090 -1428
-1098 -1422 -6 5 -51 40 -99 77 -54 41 -86 73 -83 81 6 16 2159 2854 2165
2854 3 0 47 -32 98 -71z m431 -343 c-6 -22 -2163 -2855 -2172 -2853 -22 7
-195 143 -193 152 1 6 490 653 1086 1438 l1083 1426 100 -76 c54 -42 98 -81
96 -87z m-2531 -2785 c117 -89 214 -165 217 -169 3 -5 -90 -59 -205 -121
l-210 -112 -69 51 c-39 29 -70 57 -70 64 0 7 23 113 50 236 28 123 50 225 50
228 0 2 6 0 13 -5 6 -6 107 -83 224 -172z m-363 -480 c3 -5 -1 -11 -9 -15 -9
-3 -15 0 -15 9 0 16 16 20 24 6z"/>
</g>
</svg>
