<?xml version="1.0" standalone="no"?>
<!DOCTYPE svg PUBLIC "-//W3C//DTD SVG 20010904//EN"
 "http://www.w3.org/TR/2001/REC-SVG-20010904/DTD/svg10.dtd">
<svg version="1.0" xmlns="http://www.w3.org/2000/svg"
 width="512.000000pt" height="512.000000pt" viewBox="0 0 512.000000 512.000000"
 preserveAspectRatio="xMidYMid meet">

<g transform="translate(0.000000,512.000000) scale(0.100000,-0.100000)"
fill="#000000" stroke="none">
<path d="M2031 4624 c-83 -22 -165 -71 -224 -133 -64 -66 -92 -120 -136 -253
-36 -108 -83 -173 -155 -211 -40 -21 -53 -22 -433 -27 -378 -5 -393 -6 -420
-26 -98 -73 -98 -195 0 -268 l28 -21 1869 0 1869 0 28 21 c98 73 98 195 0 268
-27 20 -42 21 -420 26 -380 5 -393 6 -433 27 -72 38 -119 103 -155 211 -44
133 -72 187 -136 253 -61 64 -141 111 -228 134 -85 22 -972 21 -1054 -1z
m1009 -322 c46 -22 73 -65 106 -165 15 -45 33 -94 41 -109 l14 -28 -641 0
-641 0 14 28 c8 15 26 64 41 109 33 98 59 140 106 164 32 18 66 19 480 19 404
0 448 -2 480 -18z"/>
<path d="M1055 3459 c-16 -4 -43 -20 -59 -35 -62 -58 -62 -4 4 -991 70 -1050
78 -1135 114 -1309 80 -381 289 -567 701 -625 117 -16 1128 -24 1340 -10 373
25 564 103 701 285 86 113 130 231 163 427 30 178 35 240 101 1231 45 673 57
904 49 925 -16 43 -69 92 -111 104 -71 19 -157 -22 -184 -87 -10 -23 -33 -312
-74 -931 -72 -1081 -83 -1192 -127 -1328 -41 -129 -116 -216 -219 -255 -137
-51 -200 -55 -894 -55 -694 0 -757 4 -894 55 -103 39 -178 126 -219 255 -44
136 -55 247 -127 1328 -41 614 -64 908 -74 930 -17 41 -45 65 -93 83 -44 15
-56 16 -98 3z"/>
<path d="M1952 2913 c-49 -24 -75 -68 -79 -132 -2 -31 20 -295 50 -587 59
-581 58 -575 128 -622 28 -20 44 -23 90 -20 96 7 149 66 149 165 -1 26 -25
285 -54 574 -58 575 -57 570 -126 616 -40 28 -109 30 -158 6z"/>
<path d="M3011 2908 c-70 -47 -69 -41 -127 -617 -29 -289 -53 -548 -54 -574 0
-99 53 -158 149 -165 46 -3 62 0 90 20 70 47 69 41 127 617 29 289 53 548 54
574 0 99 -53 158 -149 165 -46 3 -62 0 -90 -20z"/>
</g>
</svg>
